<?xml version="1.0" encoding="UTF-8" standalone="no"?>
<svg width="300px" height="300px" viewBox="0 0 300 300" version="1.1" xmlns="http://www.w3.org/2000/svg" xmlns:xlink="http://www.w3.org/1999/xlink">
    <!-- Generator: Sketch 47 (45396) - http://www.bohemiancoding.com/sketch -->
    <title>integrations</title>
    <desc>Created with Sketch.</desc>
    <defs></defs>
    <g id="Page-1" stroke="none" stroke-width="1" fill="none" fill-rule="evenodd">
        <g id="integrations">
            <g id="Group-3" transform="translate(17.000000, 24.000000)">
                <g id="Group-2">
                    <path d="M8.85449102,44.25 L0,69.915 C12.3962874,74.045 18.5944311,78.175 18.5944311,82.305 C18.5944311,88.5 24.7925749,95.58 18.5944311,101.775 C14.4623353,105.905 9.14964072,109.445 2.65634731,112.395 L13.2817365,137.175 C22.1362275,132.455 28.0392216,131.275 30.9907186,133.635 C35.4179641,137.175 48.6997006,140.715 48.6997006,149.565 C48.6997006,155.465 48.1094012,161.955 46.9288024,169.035 L69.0650299,177 C75.5583234,165.79 79.9855689,159.89 82.3467665,159.3 C85.8885629,158.415 95.628503,154.875 100.055749,159.3 C103.007246,162.25 106.844192,168.15 111.566587,177 L136.359162,165.495 C130.456168,154.875 128.980419,147.5 131.931916,143.37 C136.359162,137.175 137.244611,130.98 142.557305,130.98 C146.099102,130.98 154.363293,130.98 167.34988,130.98 L176.204371,107.97 C165.578982,102.07 159.675988,97.35 158.495389,93.81 C156.724491,88.5 154.953593,78.765 156.724491,76.995 C157.90509,75.815 163.512934,71.095 173.548024,62.835 L161.151737,39.825 C151.706946,45.725 145.508802,47.2 142.557305,44.25 C138.13006,39.825 127.504671,37.17 128.39012,30.975 C128.980419,26.845 130.161018,19.47 131.931916,8.85 L106.253892,0 C103.302395,12.39 100.055749,18.88 96.5139521,19.47 C91.2012575,20.355 82.3467665,23.895 77.0340719,19.47 C73.4922754,16.52 68.4747305,10.03 61.9814371,0 L41.6161078,10.62 C44.5676048,18.29 44.5676048,25.075 41.6161078,30.975 C37.1888623,39.825 38.0743114,45.135 30.9907186,46.02 C26.2683234,46.61 18.8895808,46.02 8.85449102,44.25 Z" id="Path-140" fill="#507BBD"></path>
                    <ellipse id="Oval-10" fill="#FFFFFF" cx="93.6586826" cy="88.8301887" rx="33.9700599" ry="32.2830189"></ellipse>
                    <ellipse id="Oval-10" stroke="#000000" stroke-width="4.5" cx="96.3413174" cy="90.1698113" rx="33.9700599" ry="32.2830189"></ellipse>
                    <path d="M17.7646707,44.25 L8.91017964,69.915 C21.3064671,74.045 27.5046108,78.175 27.5046108,82.305 C27.5046108,88.5 33.7027545,95.58 27.5046108,101.775 C23.372515,105.905 18.0598204,109.445 11.5665269,112.395 L22.1919162,137.175 C31.0464072,132.455 36.9494012,131.275 39.9008982,133.635 C44.3281437,137.175 57.6098802,140.715 57.6098802,149.565 C57.6098802,155.465 57.0195808,161.955 55.838982,169.035 L77.9752096,177 C84.468503,165.79 88.8957485,159.89 91.2569461,159.3 C94.7987425,158.415 104.538683,154.875 108.965928,159.3 C111.917425,162.25 115.754371,168.15 120.476766,177 L145.269341,165.495 C139.366347,154.875 137.890599,147.5 140.842096,143.37 C145.269341,137.175 146.15479,130.98 151.467485,130.98 C155.009281,130.98 163.273473,130.98 176.26006,130.98 L185.114551,107.97 C174.489162,102.07 168.586168,97.35 167.405569,93.81 C165.634671,88.5 163.863772,78.765 165.634671,76.995 C166.815269,75.815 172.423114,71.095 182.458204,62.835 L170.061916,39.825 C160.617126,45.725 154.418982,47.2 151.467485,44.25 C147.04024,39.825 136.41485,37.17 137.300299,30.975 C137.890599,26.845 139.071198,19.47 140.842096,8.85 L115.164072,0 C112.212575,12.39 108.965928,18.88 105.424132,19.47 C100.111437,20.355 91.2569461,23.895 85.9442515,19.47 C82.4024551,16.52 77.3849102,10.03 70.8916168,0 L50.5262874,10.62 C53.4777844,18.29 53.4777844,25.075 50.5262874,30.975 C46.0990419,39.825 46.984491,45.135 39.9008982,46.02 C35.178503,46.61 27.7997605,46.02 17.7646707,44.25 Z" id="Path-140" stroke="#000000" stroke-width="4.5"></path>
                    <ellipse id="Oval-10" stroke="#000000" stroke-width="4.5" cx="96.3413174" cy="90.7264151" rx="22.8323353" ry="21.7075472"></ellipse>
                </g>
                <g id="Group-2" transform="translate(196.000000, 186.000000) rotate(-153.000000) translate(-196.000000, -186.000000) translate(135.000000, 128.000000)">
                    <path d="M5.85198721,29 L0,45.82 C8.19278209,48.5266667 12.2891731,51.2333333 12.2891731,53.94 C12.2891731,58 16.3855642,62.64 12.2891731,66.7 C9.55824577,69.4066667 6.04705345,71.7266667 1.75559616,73.66 L8.77798081,89.9 C14.629968,86.8066667 18.5312928,86.0333333 20.4819552,87.58 C23.4079488,89.9 32.1859296,92.22 32.1859296,98.02 C32.1859296,101.886667 31.7957972,106.14 31.0155322,110.78 L45.6455002,116 C49.9369575,108.653333 52.8629511,104.786667 54.423481,104.4 C56.7642759,103.82 63.2014619,101.5 66.1274555,104.4 C68.0781179,106.333333 70.613979,110.2 73.7350388,116 L90.120603,108.46 C86.2192782,101.5 85.243947,96.6666667 87.1946094,93.96 C90.120603,89.9 90.7058017,85.84 94.2169941,85.84 C96.5577889,85.84 102.019644,85.84 110.602558,85.84 L116.454545,70.76 C109.432161,66.8933333 105.530836,63.8 104.750571,61.48 C103.580174,58 102.409776,51.62 103.580174,50.46 C104.360439,49.6866667 108.066697,46.5933333 114.698949,41.18 L106.506167,26.1 C100.264048,29.9666667 96.1676565,30.9333333 94.2169941,29 C91.2910005,26.1 84.2686158,24.36 84.8538145,20.3 C85.243947,17.5933333 86.024212,12.76 87.1946094,5.8 L70.2238465,0 C68.2731841,8.12 66.1274555,12.3733333 63.7866606,12.76 C60.2754683,13.34 54.423481,15.66 50.9122887,12.76 C48.5714938,10.8266667 45.2553677,6.57333333 40.9639105,0 L27.5043399,6.96 C29.4550023,11.9866667 29.4550023,16.4333333 27.5043399,20.3 C24.5783463,26.1 25.163545,29.58 20.4819552,30.16 C17.3608954,30.5466667 12.4842394,30.16 5.85198721,29 Z" id="Path-140" fill="#507BBD"></path>
                    <ellipse id="Oval-10" fill="#FFFFFF" cx="63.8083707" cy="57.4188812" rx="22.7363636" ry="21.3396226"></ellipse>
                    <ellipse id="Oval-10" stroke="#000000" stroke-width="4.5" cx="63.7224681" cy="56.8049043" rx="25.4100474" ry="23.8490566"></ellipse>
                    <path d="M11.3974418,29 L5.54545455,45.82 C13.7382366,48.5266667 17.8346277,51.2333333 17.8346277,53.94 C17.8346277,58 21.9310187,62.64 17.8346277,66.7 C15.1037003,69.4066667 11.592508,71.7266667 7.30105071,73.66 L14.3234354,89.9 C20.1754226,86.8066667 24.0767474,86.0333333 26.0274098,87.58 C28.9534034,89.9 37.7313842,92.22 37.7313842,98.02 C37.7313842,101.886667 37.3412517,106.14 36.5609868,110.78 L51.1909548,116 C55.4824121,108.653333 58.4084057,104.786667 59.9689356,104.4 C62.3097305,103.82 68.7469164,101.5 71.67291,104.4 C73.6235724,106.333333 76.1594335,110.2 79.2804934,116 L95.6660576,108.46 C91.7647328,101.5 90.7894016,96.6666667 92.740064,93.96 C95.6660576,89.9 96.2512563,85.84 99.7624486,85.84 C102.103243,85.84 107.565098,85.84 116.148013,85.84 L122,70.76 C114.977615,66.8933333 111.076291,63.8 110.296026,61.48 C109.125628,58 107.955231,51.62 109.125628,50.46 C109.905893,49.6866667 113.612152,46.5933333 120.244404,41.18 L112.051622,26.1 C105.809502,29.9666667 101.713111,30.9333333 99.7624486,29 C96.836455,26.1 89.8140704,24.36 90.3992691,20.3 C90.7894016,17.5933333 91.5696665,12.76 92.740064,5.8 L75.7693011,0 C73.8186386,8.12 71.67291,12.3733333 69.3321151,12.76 C65.8209228,13.34 59.9689356,15.66 56.4577433,12.76 C54.1169484,10.8266667 50.8008223,6.57333333 46.509365,0 L33.0497944,6.96 C35.0004568,11.9866667 35.0004568,16.4333333 33.0497944,20.3 C30.1238008,26.1 30.7089995,29.58 26.0274098,30.16 C22.9063499,30.5466667 18.0296939,30.16 11.3974418,29 Z" id="Path-140" stroke="#000000" stroke-width="4.5"></path>
                    <ellipse id="Oval-10" stroke="#000000" stroke-width="4.5" cx="62.8647463" cy="57.3123266" rx="14.9727273" ry="14.2264151"></ellipse>
                </g>
            </g>
        </g>
    </g>
</svg>